# xmcd
#
# Track frame offsets: 
#        183
#        22040
#        46673
#        69298
#        83955
#        101200
#        121595
#        141043
#        164660
#        184455
#        201690
#        219910
#        243733
#        267685
#        297765
#
# Disc length: 4222 seconds
#
# Revision: 0
# Processed by: cddbd v1.4PL0 Copyright (c) Steve Scherf et al.
# Submitted via: ExactAudioCopy v0.90b4
#
DISCID=ea107c0f
DTITLE=Muskee - Gang
DYEAR=1982
DGENRE=Blues
TTITLE0=The legend
TTITLE1=Geronimo wheeps
TTITLE2=Lavorare stanca
TTITLE3=For real
TTITLE4=The zoo
TTITLE5=Can you tell me
TTITLE6=Practical coward
TTITLE7=City soldier
TTITLE8=Schizo like you
TTITLE9=Shaky grounds
TTITLE10=Missing you
TTITLE11=Too blind to see
TTITLE12=Instinct
TTITLE13=I've always been lonely
TTITLE14=I want you
EXTD=
EXTT0=
EXTT1=
EXTT2=
EXTT3=
EXTT4=
EXTT5=
EXTT6=
EXTT7=
EXTT8=
EXTT9=
EXTT10=
EXTT11=
EXTT12=
EXTT13=
EXTT14=
PLAYORDER=
